#!OML:ASF E:/inclinewalkrobotboard/Project1/Captureday1/Session1/subject1.ASF
:FULLY-SPECIFIED
:DEGREES
113
root 0 0 0 -1.6008326933358052 -5.1294581685477585 -7.704555249465743
lowerback 9.902548373052166 1.9705557644014924 5.898885606015637
upperback -1.0346600082779496 3.389458499428689 1.6558518413171432
thorax -6.552927478135086 1.5310389641181996 -2.0976107825829824
lowerneck -17.41269552860525 -3.1927276604780586 -0.8818777351516256
upperneck 12.898671701639852 -4.088585118290495 -0.08050377298089151
head 6.818899588581568 -2.0402115355965416 -0.3517415272742765
rclavicle -2.7460038928233874E-15 2.160334612464906E-15
rhumerus -27.669928899228413 -24.12951573636098 -79.54928423394708
rradius 27.229741188398854
rwrist 16.300619777312924
rhand -21.047070676602207 27.56806659526754
rfingers 7.125019999999991
rthumb 5.355715661376862 -2.59695617556865
lclavicle -7.886142687290788E-16 1.2888239182594165E-15
lhumerus -32.57067372740497 -0.4694401928590136 81.69730133077582
lradius 29.419495279523368
lwrist 7.563928526252104
lhand -27.749820886250184 25.976882566391634
lfingers 7.125020000000008
lthumb -1.1530683475655739 55.97595429049296
rfemur -7.238794213742501 6.866092511437348 30.774914681788175
rtibia 33.32435402958166
rfoot -13.4927234938926 -6.608503890959361
rtoes 3.636325863254891
lfemur -20.163710208662312 2.648686135466227 -14.657523945983767
ltibia 41.39028336807937
lfoot -2.0843445033652834 -4.836328068159283
ltoes -13.601972637481724
114
root 0 0 0 -1.4100386608387356 -5.370937492967119 -8.130658490221174
lowerback 9.528616804906573 2.4118349221444415 6.471782883477001
upperback -0.9941621588602115 3.996162915914258 1.3131404619033598
thorax -6.31907962454484 1.814531521884289 -2.8453742255204166
lowerneck -16.9932140071275 -3.1361879465597804 -0.9037418112629219
upperneck 12.852799324554093 -4.2146496641785145 0.5830627836143213
head 6.765328648563584 -2.0297159249972503 -0.12936935315673792
rclavicle -4.1038720324370404E-15 2.1722766154804992E-15
rhumerus -26.924990387725906 -22.24990977505058 -79.65468492287357
rradius 28.722780338256772
rwrist 15.754492413257665
rhand -21.072492949339306 28.299990199320433
rfingers 7.125019999999994
rthumb 5.328733991976835 -1.8595673263538046
lclavicle -2.5048253262476906E-15 9.844392525739835E-16
lhumerus -34.42133975000861 3.1009659811598973 80.79577796362835
lradius 24.685010703415415
lwrist 4.02310433882766
lhand -27.21509224111243 26.40006530077962
lfingers 7.1250200000000055
lthumb -0.6294097199379101 56.39161762315797
rfemur -6.237755621851088 6.881358161776287 30.68287851433854
rtibia 32.51917226297796
rfoot -13.605029029960203 -6.368033309814296
rtoes 3.537867004082601
lfemur -21.436897579878124 1.613907844631183 -12.392077433145722
ltibia 38.927026437614444
lfoot -4.720186028331687 -1.492887334645998
ltoes -21.930964552730146
115
root 0 0 0 -1.250991463840556 -5.499241770186966 -8.284231390917013
lowerback 9.494767849650529 2.5885861594419968 6.678298299427961
upperback -0.7160054040955922 4.235836154433789 1.2160800506256642
thorax -5.99956927774476 1.9281235026210946 -3.0843995869654783
lowerneck -16.309055194514112 -3.122092679347734 -0.9609944131025255
upperneck 13.21409282787068 -4.278040455078559 0.9932868600831735
head 6.778122184526319 -2.0267801498343467 0.015923201152230726
rclavicle -5.367443363012215E-15 1.600837047866913E-15
rhumerus -26.644672388106756 -20.651082301578988 -80.14450744318988
rradius 29.141792878202985
rwrist 15.991786801562029
rhand -20.941184969081434 28.990715339775903
rfingers 7.125019999999995
rthumb 5.454281508943158 -1.1582705566515017
lclavicle -4.796350106574768E-15 7.586447462449891E-16
lhumerus -35.3279973228034 6.725316859477563 80.32415689127053
lradius 18.953316835208742
lwrist -0.0823436777095683
lhand -26.850641700834146 26.734530075096753
lfingers 7.125019999999993
lthumb -0.2984777558807181 56.73953507669218
rfemur -5.544303608473938 6.7450843916934655 30.262741824872805
rtibia 32.15050848549819
rfoot -13.29947982398121 -6.069789822296293
rtoes 3.53150488539632
lfemur -22.06048789291138 0.9392885409305438 -11.958219862916494
ltibia 37.91153623565428
lfoot -5.222417294859277 -0.5356769414553626
ltoes -22.63009909397011
116
root 0 0 0 -1.1316895624143555 -5.564733720301012 -8.34416133330286
lowerback 9.446954014141669 2.6662538045616095 6.710858862389494
upperback -0.5248072269997637 4.334699121849075 1.190222746705216
thorax -5.758287312870207 1.9773407976293653 -3.1354021545587987
lowerneck -15.672071459520716 -3.1231032873953497 -0.9838445013178304
upperneck 13.589756294918654 -4.328114915865241 1.2867146468346233
head 6.802886451187324 -2.029536041438936 0.11809381316817752
rclavicle -5.561585513743241E-15 9.849976540070244E-16
rhumerus -27.188216880490547 -19.74009422101932 -81.06373902360218
rradius 28.170805910979798
rwrist 16.62048603767412
rhand -20.750823660128283 29.51304880014259
rfingers 7.125019999999994
rthumb 5.638609096413409 -0.6354891714543598
lclavicle -5.454885716460013E-15 5.168193953236426E-16
lhumerus -35.43147573085441 8.240537230437283 80.1639998380718
lradius 16.44467769746367
lwrist -1.8477078920070702
lhand -26.76732881211342 26.750183604738044
lfingers 7.125019999999983
lthumb -0.23841478164030772 56.76213193284333
rfemur -5.285035438557432 6.431802556677427 29.530745215386414
rtibia 32.560296440242915
rfoot -12.424264112611588 -5.706819512940138
rtoes 3.772634595372699
lfemur -22.022638771026692 0.8875782431707009 -13.694656388479096
ltibia 38.81396772119829
lfoot -3.0796266022934393 -2.5480543980675097
ltoes -14.357242623761932
117
root 0 0 0 -1.1461457397869452 -5.610558847665242 -8.324770373748066
lowerback 9.36734660469276 2.7009700302113364 6.685450259377991
upperback -0.3978645632711502 4.372865210736522 1.1702824217183796
thorax -5.569990538428815 1.997518666419193 -3.1401375927973207
lowerneck -15.305273163198647 -3.1356767380389723 -1.0215133253984172
upperneck 13.69030977949432 -4.370659561098028 1.5027169698457445
head 6.767735929251474 -2.0376424595102742 0.1965439787586588
rclavicle -5.24706835542679E-15 6.213452932526999E-16
rhumerus -27.991868854988066 -19.412523065656046 -81.92946008882731
rradius 26.690475061687543
rwrist 17.115502895776824
rhand -20.563650081390264 29.866424594329366
rfingers 7.125019999999993
rthumb 5.820474961425088 -0.289702965203233
lclavicle -5.46219931482264E-15 2.4542336150220597E-16
lhumerus -35.44609599951931 8.674497463121334 80.07111247260212
lradius 15.787090790403255
lwrist -2.2934993201771685
lhand -26.768936251732235 26.7551407598794
lfingers 7.12501999999998
lthumb -0.24695093018288095 56.769600565934454
rfemur -5.613061690865756 5.991578739053651 28.784852789035764
rtibia 34.29767462465149
rfoot -11.014110003030064 -5.344693680339985
rtoes 4.462110561277982
lfemur -21.688688302144573 1.1403739513454214 -15.249331465536528
ltibia 40.054856096227546
lfoot -1.0475874653899595 -4.633897592248676
ltoes -7.469713202443277
118
root 0 0 0 -1.317254955956736 -5.712032022633144 -8.223657428985682
lowerback 9.162785570320864 2.719337702799208 6.618795878743528
upperback -0.26388686438954345 4.381901658755846 1.1514349780381228
thorax -5.304073307365246 2.005757555327614 -3.1113590731098135
lowerneck -14.975605568372334 -3.1553531196338063 -1.119212165820797
upperneck 13.387828756958957 -4.404761515344096 1.7851654893696518
head 6.583652764636646 -2.0476333614604956 0.3096248987286643
rclavicle -4.910272121138586E-15 2.41339290868059E-16
rhumerus -28.815821304380904 -19.23119635563632 -82.66809970650421
rradius 24.995425461454126
rwrist 17.301305161693296
rhand -20.291706355752527 30.15295375480597
rfingers 7.125019999999993
rthumb 6.08355083353616 -0.0017275603431272657
lclavicle -5.429192084271098E-15 -1.5374276280076836E-16
lhumerus -35.3813907429565 8.764385423172 80.09100650242355
lradius 15.599625185879084
lwrist -2.381455374480572
lhand -26.794300532565263 26.810507061929076
lfingers 7.12501999999998
lthumb -0.27217642923426943 56.830825407579134
rfemur -7.027651391785302 5.49735653011424 28.628690205804375
rtibia 38.69917414842561
rfoot -9.147186395334748 -5.151941866627398
rtoes 5.885964194334893
lfemur -21.38123983131931 1.3949630787929648 -15.995766437757196
ltibia 40.99517173412705
lfoot 0.1139036382584866 -5.862783902198306
ltoes -4.26857251274134
